<svg xmlns="http://www.w3.org/2000/svg" viewBox="0 0 651.67 350.05"><defs><style>.cls-1{fill:#86b5d7;}.cls-2{fill:#50514f;}.cls-3{fill:#7e7f7f;}.cls-4{fill:#88b8da;}.cls-5{fill:#ee6f61;}.cls-6{fill:#e86d5e;}.cls-7{fill:#ffcb36;}.cls-8{fill:#2eb04b;}</style></defs><title>Asset 1</title><g id="Layer_2" data-name="Layer 2"><g id="Layer_1-2" data-name="Layer 1"><rect class="cls-1" x="287.76" width="21.42" height="8.17" rx="3.54"/><rect class="cls-1" x="225.92" y="31.16" width="90.22" height="8.17" rx="3.54"/><rect class="cls-2" x="280.26" y="15.63" width="76.33" height="8.17" rx="3.54"/><rect class="cls-2" x="219.83" y="46.5" width="28.38" height="8.17" rx="3.54"/><rect class="cls-3" x="254.47" y="46.5" width="18.6" height="8.17" rx="3.53"/><rect class="cls-4" x="279.87" y="46.5" width="93.23" height="8.17" rx="3.54"/><rect class="cls-3" x="279.87" y="62" width="103.17" height="8.17" rx="3.55"/><rect class="cls-5" x="387.6" y="62" width="11.44" height="8.17" rx="3.53"/><rect class="cls-4" x="220.12" y="62" width="52.79" height="8.17" rx="3.55"/><rect class="cls-4" x="221.14" y="77.62" width="179.04" height="8.17" rx="3.55"/><rect class="cls-2" x="218.5" y="93.12" width="40.54" height="8.17" rx="3.55"/><rect class="cls-4" x="213.06" y="108.79" width="59.51" height="8.17" rx="3.54"/><rect class="cls-4" x="136.72" y="186.63" width="128.82" height="8.17" rx="3.56"/><rect class="cls-2" x="275.95" y="186.63" width="145.65" height="8.17" rx="3.56"/><rect class="cls-3" x="136.72" y="202.13" width="82.07" height="8.17" rx="3.54"/><rect class="cls-3" x="175.15" y="217.63" width="285.44" height="8.17" rx="3.53"/><rect class="cls-4" x="228.68" y="202.13" width="215.92" height="8.17" rx="3.55"/><rect class="cls-6" x="292.18" y="108.79" width="91.54" height="8.17" rx="3.55"/><rect class="cls-3" x="199.81" y="124.17" width="124.79" height="8.17" rx="3.55"/><rect class="cls-3" x="166.47" y="139.67" width="218.96" height="8.17" rx="3.56"/><rect class="cls-2" x="140.85" y="155.29" width="116.37" height="8.17" rx="3.55"/><rect class="cls-4" x="266.41" y="155.29" width="127.05" height="8.17" rx="3.55"/><rect class="cls-4" x="331.47" y="124.17" width="48.96" height="8.17" rx="3.53"/><rect class="cls-6" x="277.93" y="108.79" width="8.31" height="8.17" rx="3.54"/><rect class="cls-6" x="238.66" y="171.12" width="11.94" height="8.17" rx="3.55"/><rect class="cls-3" x="128.91" y="171.12" width="33.72" height="8.17" rx="3.56"/><rect class="cls-7" x="214.93" y="232.88" width="26.42" height="8.17" rx="3.53"/><rect class="cls-8" x="282.56" y="279.63" width="51.38" height="8.17" rx="3.55"/><rect class="cls-4" x="302.31" y="295.38" width="51.57" height="8.17" rx="3.55"/><rect class="cls-2" x="362.23" y="295.38" width="81.24" height="8.17" rx="3.54"/><rect class="cls-5" x="465.24" y="295.38" width="20.6" height="8.17" rx="3.53"/><rect class="cls-3" x="340.93" y="279.63" width="135.58" height="8.17" rx="3.55"/><rect class="cls-3" x="320.78" y="310.63" width="113.56" height="8.17" rx="3.54"/><rect class="cls-5" x="342.45" y="326.3" width="31.43" height="8.17" rx="3.53"/><rect class="cls-4" x="378.35" y="326.3" width="47.53" height="8.17" rx="3.54"/><rect class="cls-2" x="364.26" y="341.89" width="49.8" height="8.17" rx="3.54"/><rect class="cls-5" x="248.14" y="232.88" width="64.54" height="8.17" rx="3.55"/><rect class="cls-4" x="320.78" y="232.88" width="44.9" height="8.17" rx="3.54"/><rect class="cls-4" x="261.24" y="264.21" width="149.23" height="8.17" rx="3.55"/><rect class="cls-4" x="373.11" y="232.88" width="88.86" height="8.17" rx="3.55"/><rect class="cls-2" x="171.74" y="171.12" width="56.94" height="8.17" rx="3.54"/><rect class="cls-2" x="239.09" y="248.75" width="148.93" height="8.17" rx="3.55"/><rect class="cls-2" x="402.76" y="248.75" width="59.71" height="8.17" rx="3.54"/><rect class="cls-3" x="259.04" y="171.12" width="144.22" height="8.17" rx="3.55"/><rect class="cls-4" x="294.01" y="93.12" width="101.5" height="8.17" rx="3.54"/><rect class="cls-7" x="265.53" y="93.12" width="22.73" height="8.17" rx="3.53"/><rect class="cls-7" x="253.89" y="15.63" width="19.08" height="8.17" rx="3.55"/><path class="cls-4" d="M83.87,239.71,0,186.23V173.31l83.87-53.48v18.76L17.73,179.77,83.87,221Z"/><path class="cls-4" d="M557.23,85.55l-52.11,162H492.55l51.89-162Z"/><path class="cls-4" d="M567.8,221l66.13-41.18L567.8,138.59V119.83l83.87,53.48v12.92L567.8,239.71Z"/></g></g></svg>