<svg width="128" height="128" viewBox="0 0 128 128" fill="none" xmlns="http://www.w3.org/2000/svg">
<path d="M87.7903 63.4433L87.7903 55.8292C87.7903 49.4989 82.7763 44.3059 76.4498 44.0839V44.0839C69.8016 43.8506 64.2851 49.1769 64.2851 55.8292L64.2851 78.7086" stroke="#88B8DA" stroke-width="2"/>
<line x1="63.8969" y1="78.1134" x2="88.6392" y2="78.1134" stroke="#88B8DA" stroke-width="2"/>
<path d="M65.515 92.3093L65.515 101.021C65.515 107.384 70.6132 112.574 76.9753 112.687V112.687C83.5684 112.805 88.949 107.439 88.8501 100.846L88.5 77.5" stroke="#88B8DA" stroke-width="2"/>
<path d="M81.2165 120.351L88.1298 116.663C95.2965 112.841 99.7732 105.38 99.7732 97.2577V72.5155H80.3918" stroke="#88B8DA" stroke-width="2"/>
<path d="M72.5567 120.351L65.6434 116.663C58.4767 112.841 54 105.38 54 97.2577V72.5155H73.3814" stroke="#88B8DA" stroke-width="2"/>
<circle cx="87.4021" cy="64.6804" r="1.64948" fill="#88B8DA" stroke="#88B8DA" stroke-width="0.824742"/>
<circle cx="72.5567" cy="119.938" r="1.64948" fill="#88B8DA" stroke="#88B8DA" stroke-width="0.824742"/>
<circle cx="80.8041" cy="119.938" r="1.64948" fill="#88B8DA" stroke="#88B8DA" stroke-width="0.824742"/>
<circle cx="65.9588" cy="91.0722" r="1.64948" fill="#88B8DA" stroke="#88B8DA" stroke-width="0.824742"/>
<circle cx="80.8041" cy="72.1031" r="1.64948" fill="#88B8DA" stroke="#88B8DA" stroke-width="0.824742"/>
<circle cx="73.3814" cy="72.1031" r="1.64948" fill="#88B8DA" stroke="#88B8DA" stroke-width="0.824742"/>
<mask id="path-12-inside-1_1_2" fill="white">
<path d="M73.5482 94.5353C72.5838 93.7593 71.8846 92.7026 71.5476 91.5116C71.2106 90.3205 71.2525 89.0541 71.6674 87.8879C72.0823 86.7217 72.8498 85.7135 73.8633 85.0029C74.8769 84.2924 76.0864 83.9148 77.3242 83.9224C78.562 83.93 79.7668 84.3225 80.7715 85.0454C81.7763 85.7684 82.5313 86.786 82.9318 87.9572C83.3324 89.1284 83.3586 90.3952 83.007 91.5821C82.6554 92.7689 81.9433 93.8169 80.9694 94.5809L78.2342 91.0943C78.4846 90.8979 78.6678 90.6284 78.7582 90.3232C78.8486 90.0181 78.8418 89.6923 78.7388 89.3912C78.6358 89.09 78.4417 88.8284 78.1834 88.6425C77.925 88.4566 77.6152 88.3557 77.297 88.3537C76.9787 88.3517 76.6677 88.4488 76.4071 88.6315C76.1464 88.8142 75.9491 89.0735 75.8424 89.3734C75.7357 89.6732 75.725 89.9988 75.8116 90.3051C75.8983 90.6114 76.078 90.8831 76.326 91.0826L73.5482 94.5353Z"/>
</mask>
<path d="M73.5482 94.5353C72.5838 93.7593 71.8846 92.7026 71.5476 91.5116C71.2106 90.3205 71.2525 89.0541 71.6674 87.8879C72.0823 86.7217 72.8498 85.7135 73.8633 85.0029C74.8769 84.2924 76.0864 83.9148 77.3242 83.9224C78.562 83.93 79.7668 84.3225 80.7715 85.0454C81.7763 85.7684 82.5313 86.786 82.9318 87.9572C83.3324 89.1284 83.3586 90.3952 83.007 91.5821C82.6554 92.7689 81.9433 93.8169 80.9694 94.5809L78.2342 91.0943C78.4846 90.8979 78.6678 90.6284 78.7582 90.3232C78.8486 90.0181 78.8418 89.6923 78.7388 89.3912C78.6358 89.09 78.4417 88.8284 78.1834 88.6425C77.925 88.4566 77.6152 88.3557 77.297 88.3537C76.9787 88.3517 76.6677 88.4488 76.4071 88.6315C76.1464 88.8142 75.9491 89.0735 75.8424 89.3734C75.7357 89.6732 75.725 89.9988 75.8116 90.3051C75.8983 90.6114 76.078 90.8831 76.326 91.0826L73.5482 94.5353Z" stroke="#88B8DA" stroke-width="4" mask="url(#path-12-inside-1_1_2)"/>
<path d="M80 92.5L83.3925 98.4457L70.609 98.4457L73.908 93.0849" stroke="#88B8DA" stroke-width="2"/>
<circle cx="77.3647" cy="31.3647" r="0.8" transform="rotate(-29.7962 77.3647 31.3647)" fill="#88B8DA" stroke="#88B8DA" stroke-width="0.4"/>
<path d="M81.059 33.9672C81.2785 34.3506 81.1457 34.8394 80.7622 35.059C80.3788 35.2785 79.89 35.1457 79.6705 34.7622C79.4509 34.3788 79.5838 33.89 79.9672 33.6705C80.3506 33.4509 80.8394 33.5838 81.059 33.9672Z" fill="#88B8DA" stroke="#88B8DA" stroke-width="0.4"/>
<path d="M62.5 48.5L66 46.5L71.7728 42.646C72.7403 42.0001 73.1896 40.8101 72.8904 39.6859V39.6859L72.9498 36.771" stroke="#88B8DA" stroke-width="2"/>
<path d="M58.6131 24.8145L63.631 26.0503C65.08 26.4071 66.4308 27.0837 67.5843 28.0305L68.8832 29.0967C70.4555 30.3872 71.5968 32.1264 72.1549 34.0824L72.4916 35.2623C72.917 36.7532 72.9899 38.3226 72.7046 39.8465L72.3723 41.6215" stroke="#88B8DA" stroke-width="2"/>
<path d="M58.1161 23.9467L59.7133 30.6404C59.9968 31.8288 60.4957 32.9551 61.1852 33.9636L64.1331 38.2752L66.9458 42.2107C67.7659 43.3582 69.0896 44.0391 70.5 44.0391V44.0391" stroke="#88B8DA" stroke-width="2"/>
<path d="M50.08 37.0686L54.144 35.7191C55.3175 35.3295 56.5633 35.2074 57.7902 35.3618L59.1717 35.5357C60.8439 35.7462 62.4122 36.4617 63.6673 37.5866L64.4243 38.2652C65.381 39.1226 66.1251 40.1908 66.598 41.3852L67.1489 42.7765" stroke="#88B8DA" stroke-width="1.65721"/>
<path d="M49.3484 36.6796L53.4241 40.6675C54.1476 41.3755 54.9948 41.9449 55.9236 42.3475L59.8944 44.0687L63.1886 45.4159C64.5653 45.9789 66.1024 46.0089 67.5 45.5V45.5" stroke="#88B8DA" stroke-width="1.65721"/>
<path d="M50.4466 45.9114L52.7946 44.0933C53.4726 43.5683 54.2595 43.2017 55.0976 43.0204L56.0414 42.8162C57.1838 42.5691 58.3744 42.6762 59.4543 43.1232L60.1058 43.3929C60.9289 43.7336 61.6616 44.2611 62.2458 44.9337L62.9264 45.717" stroke="#88B8DA" stroke-width="1.14925"/>
<path d="M49.8785 45.8253L53.4625 47.4961C54.0988 47.7927 54.784 47.9702 55.4843 48.0199L58.4781 48.232L61.456 48.3807C62.1749 48.4166 62.8943 48.3171 63.5765 48.0874L64 47.9448" stroke="#88B8DA" stroke-width="1.14925"/>
<path d="M74.5599 38.4605L75.9023 36.6573C76.2785 36.152 76.5559 35.58 76.7197 34.9717L77.52 32" stroke="#88B8DA" stroke-width="0.7"/>
<path d="M79.9004 34.6926L78.1851 36.1455C77.7043 36.5527 77.3048 37.0471 77.0076 37.6027L75.5561 40.3164" stroke="#88B8DA" stroke-width="0.7"/>
</svg>
