<?xml version="1.0" encoding="utf-8"?><svg version="1.1" id="Layer_1" xmlns="http://www.w3.org/2000/svg" xmlns:xlink="http://www.w3.org/1999/xlink" x="0px" y="0px" viewBox="0 0 122.88 108.8" style="enable-background:new 0 0 122.88 108.8" xml:space="preserve"><g><path d="M26.52,59.47c-0.36,0.11-0.76,0.08-1.13-0.1c-1.49-0.78-2.69-1.31-3.94-1.38c-1.23-0.07-2.54,0.3-4.28,1.34 c-0.35,0.21-0.75,0.26-1.13,0.17c-0.36-0.09-0.71-0.32-0.92-0.68c-0.21-0.35-0.26-0.75-0.17-1.13c0.09-0.37,0.32-0.71,0.68-0.92 c0.95-0.56,1.88-0.97,2.82-1.23c0.94-0.26,1.88-0.36,2.83-0.34c0.93,0.02,1.84,0.17,2.76,0.43c0.91,0.26,1.8,0.63,2.7,1.09 c0.36,0.19,0.61,0.51,0.73,0.86c0.11,0.36,0.08,0.76-0.1,1.13C27.21,59.1,26.89,59.35,26.52,59.47L26.52,59.47L26.52,59.47z M11.38,83.59c1.04-0.35,2.07-0.5,3.08-0.47c1.42,0.04,2.8,0.41,4.13,1.01c0.8,0.36,1.15,1.29,0.8,2.09 c-0.35,0.79-1.29,1.15-2.09,0.8c-0.98-0.44-1.95-0.71-2.92-0.74c-0.89-0.02-1.8,0.16-2.74,0.62l0.05,0.45 c0.06,0.51,0.15,1.05,0.25,1.6c0.09,0.54,0.21,1.08,0.32,1.63v0.02c0.04,0.21,0.04,0.42,0.01,0.61c-0.03,0.21-0.11,0.41-0.22,0.58 c-0.4,0.8-0.7,1.55-0.92,2.23c-0.22,0.7-0.34,1.32-0.38,1.88c-0.03,0.56,0.02,1.05,0.16,1.48c0.13,0.43,0.36,0.79,0.66,1.09 c0.32,0.32,0.74,0.6,1.24,0.83c0.53,0.24,1.15,0.43,1.84,0.55c1.07,0.2,2.3,0.27,3.62,0.23c1.4-0.04,2.9-0.22,4.47-0.5 c1.54-0.28,3.19-0.65,4.84-1.09c1.5-0.42,3-0.9,4.45-1.46c1.28-0.5,2.51-1.05,3.64-1.67c1.05-0.57,2.01-1.19,2.83-1.84 c0.82-0.66,1.44-1.54,1.92-2.48l0.01-0.02c0.49-0.96,0.84-1.98,1.18-2.93l0.33-0.95l0.2-0.54c0.42-1.16,1-2.74,1.71-4.22 c0.72-1.51,1.58-2.92,2.57-3.68c0.36-0.28,0.82-0.4,1.25-0.33c0.43,0.05,0.83,0.27,1.13,0.65c0.28,0.36,0.4,0.82,0.33,1.25 c-0.05,0.43-0.27,0.84-0.65,1.12c-0.58,0.45-1.19,1.53-1.74,2.74c-0.56,1.25-1.07,2.63-1.44,3.65c-0.19,0.47-0.35,0.97-0.52,1.44 c-0.41,1.16-0.84,2.41-1.48,3.6c-0.65,1.22-1.5,2.39-2.71,3.36c-0.97,0.77-2.07,1.49-3.26,2.13c-1.28,0.7-2.67,1.32-4.1,1.88 c-0.31,0.13-0.65,0.24-0.98,0.37l-0.73,0.24l0,0c0.01,0.42,0.01,0.83-0.01,1.25c-0.02,0.5-0.05,0.99-0.09,1.49 c-0.06,0.68-0.16,1.34-0.28,2.01c-0.13,0.67-0.27,1.32-0.44,1.97c-0.13,0.45-0.42,0.81-0.79,1.03c-0.38,0.22-0.83,0.29-1.28,0.17 c-0.45-0.13-0.81-0.42-1.03-0.79s-0.29-0.83-0.17-1.28v-0.01c0.16-0.57,0.28-1.14,0.39-1.71c0.1-0.57,0.19-1.14,0.24-1.71 c0.03-0.3,0.05-0.6,0.06-0.91l0.02-0.49c-0.73,0.2-1.46,0.38-2.17,0.53c-0.88,0.2-1.76,0.38-2.61,0.53 c-1.76,0.31-3.47,0.51-5.06,0.55c-1.54,0.04-2.97-0.04-4.25-0.28c-1.02-0.19-1.96-0.48-2.78-0.87c-0.8-0.39-1.51-0.87-2.09-1.46 c-0.65-0.66-1.13-1.42-1.44-2.3c-0.29-0.84-0.41-1.79-0.34-2.84c0.05-0.75,0.2-1.55,0.45-2.42c0.24-0.8,0.56-1.67,0.99-2.56 c-0.09-0.46-0.18-0.93-0.26-1.4c-0.08-0.5-0.17-1.02-0.23-1.56c-0.08-0.6-0.15-1.21-0.2-1.8c-0.05-0.59-0.08-1.2-0.11-1.82 c0-0.06-0.02-0.14-0.03-0.21c-0.1-1.1-0.17-2.2-0.2-3.28c-0.04-1.08-0.05-2.18-0.06-3.27v-0.3c-1.06-0.06-2.19-0.09-3.23-0.19 c-0.45-0.02-0.89-0.09-1.28-0.22c-0.42-0.12-0.81-0.31-1.16-0.54c-0.33-0.22-0.63-0.48-0.91-0.78c-0.26-0.3-0.49-0.63-0.67-1 c-0.18-0.35-0.31-0.74-0.4-1.14C0.03,72.83-0.01,72.4,0,71.97c0.01-0.62,0.13-1.29,0.35-1.98c0.22-0.64,0.53-1.29,0.95-1.96 l3.62-7.4c0.89-1.8,1.32-2.82,1.53-3.62c0.2-0.78,0.18-1.36,0.14-2.29v-0.01c-0.03-0.85-0.08-1.96-0.02-3.61 c0.03-0.99,0.1-1.96,0.22-2.89c0.11-0.94,0.28-1.85,0.5-2.75c0.16-0.65,0.34-1.27,0.55-1.9c0.18-0.51,0.38-1.01,0.59-1.49 L2.04,39.3c-0.43-0.19-0.74-0.53-0.9-0.93c-0.16-0.41-0.17-0.86,0.02-1.29l0.08-0.18c0.03-0.05,0.06-0.1,0.09-0.16v-0.01 c7.4-10.1,15.28-16.78,23.1-20.7c8.88-4.47,17.71-5.4,25.75-3.81c0.34,0.07,0.71,0.15,1.07,0.23c0.34,0.07,0.7,0.17,1.06,0.26 c0.15,0.04,0.24,0.17,0.25,0.31v2.83c0,0.18-0.15,0.32-0.32,0.32c-0.04,0-0.08-0.01-0.11-0.02c-0.41-0.11-0.83-0.22-1.28-0.33 c-0.44-0.1-0.88-0.2-1.31-0.28c-7.23-1.43-15.17-0.6-23.21,3.34c-7.05,3.46-14.19,9.32-20.99,18.16c2,0.88,4.39,1.77,6.3,2.76 c1.94,0.7,4.24,0.63,6.7,0.22c2.51-0.43,5.18-1.24,7.78-2.03c1.92-0.58,3.79-1.16,5.58-1.58c1.8-0.43,3.54-0.71,5.16-0.7 c0.1-0.01,0.22-0.01,0.33,0.01c0.1,0.01,0.22,0.04,0.32,0.07c0.45,0.14,0.79,0.46,0.98,0.84c0.2,0.39,0.24,0.84,0.09,1.29 c-0.85,2.59-1.24,4.83-1.22,6.8c0.01,1.95,0.42,3.61,1.14,5.07c0.73,1.47,1.78,2.76,3.08,3.92c1.31,1.17,2.88,2.2,4.63,3.14 c0.41,0.22,0.69,0.59,0.81,1.01c0.13,0.42,0.08,0.87-0.14,1.28c-0.22,0.41-0.59,0.69-1.01,0.81c-0.42,0.13-0.88,0.08-1.28-0.14 c-2.02-1.1-3.84-2.31-5.39-3.71c-1.56-1.4-2.83-2.99-3.74-4.83c-0.81-1.66-1.32-3.5-1.46-5.57c-0.13-1.94,0.08-4.07,0.67-6.46 c-1.07,0.16-2.21,0.42-3.38,0.73c-1.37,0.37-2.79,0.79-4.22,1.23c-2.69,0.81-5.43,1.66-8.09,2.12c-2.59,0.46-5.11,0.56-7.44-0.02 c-0.2,0.42-0.38,0.84-0.53,1.29c-0.19,0.53-0.34,1.08-0.48,1.63c-0.19,0.76-0.32,1.56-0.43,2.4c-0.1,0.83-0.17,1.69-0.2,2.56 c-0.05,1.52-0.01,2.56,0.02,3.36v0.03c0.05,1.25,0.08,2.04-0.18,3.08C9.52,58.71,9,59.96,7.94,62.12l-3.67,7.56l-0.08,0.13 c-0.27,0.42-0.47,0.81-0.6,1.18c-0.14,0.39-0.21,0.74-0.21,1.05c0,0.16,0.01,0.31,0.04,0.46c0.03,0.14,0.07,0.27,0.13,0.38 c0.04,0.09,0.1,0.18,0.17,0.25l0.01,0.02c0.06,0.06,0.13,0.13,0.21,0.18c0.09,0.06,0.21,0.12,0.32,0.16 c0.13,0.03,0.26,0.06,0.4,0.06c1.33-0.01,2.92,0.17,4.28,0.25c0.06-0.02,0.12-0.03,0.19-0.04c0.08-0.01,0.17-0.02,0.26-0.02 c1.25,0,2.78,0.21,4.05,0.33c0.46,0.04,0.86,0.26,1.15,0.59c0.28,0.33,0.44,0.77,0.4,1.23c-0.04,0.47-0.26,0.88-0.59,1.16 c-0.33,0.28-0.77,0.44-1.23,0.4c-0.67-0.05-1.34-0.08-2.01-0.13v0.06c0.01,0.98,0.02,1.95,0.05,2.93l0.15,2.73L11.38,83.59 L11.38,83.59z M79.96,33.68c5.88-7.15,17.99-6.99,23.2,0.01L104,32.9c-5.83-9.27-18.18-9.61-24.93-0.05L79.96,33.68L79.96,33.68 L79.96,33.68z M85.01,12.21c1.77,0,3.2,1.87,3.2,4.18s-1.43,4.18-3.2,4.18c-1.77,0-3.2-1.87-3.2-4.18 C81.81,14.08,83.24,12.21,85.01,12.21L85.01,12.21L85.01,12.21z M98.81,12.21c1.77,0,3.2,1.87,3.2,4.18s-1.44,4.18-3.2,4.18 c-1.77,0-3.2-1.87-3.2-4.18C95.61,14.08,97.04,12.21,98.81,12.21L98.81,12.21L98.81,12.21z M85.82,39.1 c0.59,1.32,1.41,2.38,2.38,3.2c1.44,1.21,3.23,1.88,5.12,2.05c1.94,0.18,3.99-0.18,5.9-1.02c1.72-0.76,3.32-1.93,4.61-3.48 c0.34-0.41,0.85-0.6,1.34-0.56c2.62,0.17,2.43-0.04,4.51-0.57c5.58-1.4,9.65-10.44,10-15.77c0.14-2.12-0.05-4.27-0.56-6.29 c-0.69-2.72-1.93-5.27-3.59-7.46c-7.55-8-13.55-7.68-21.5-2.37c-0.49,0.37-1.11,0.42-1.63,0.17c-5.52-2.4-10.33-2.97-14.36-1.58 c-4.02,1.37-7.38,4.73-10.04,10.19c-0.16,0.32-0.41,0.56-0.7,0.72c-3.17,1.78-4.77,5.03-4.92,8.51c-0.08,2,0.31,4.07,1.16,6.01 c0.84,1.93,2.16,3.72,3.89,5.13c3.6,2.93,9.13,4.3,16.46,2.2C84.7,37.96,85.51,38.37,85.82,39.1L85.82,39.1L85.82,39.1z M93.22,69.48c0.66-1.09,1.7-1.83,2.84-2.14c1.19-0.32,2.49-0.2,3.63,0.46c1.15,0.66,1.93,1.72,2.25,2.91 c0.32,1.19,0.2,2.49-0.46,3.63s-1.72,1.93-2.91,2.25c-1.15,0.31-2.41,0.21-3.53-0.39c-0.07-0.03-0.15-0.07-0.22-0.13 c-1.09-0.66-1.83-1.7-2.14-2.84c-0.31-1.14-0.21-2.41,0.4-3.53C93.13,69.63,93.17,69.56,93.22,69.48L93.22,69.48L93.22,69.48z M96.76,69.9c-0.52,0.15-0.99,0.49-1.28,1v0.01c-0.29,0.51-0.35,1.1-0.21,1.63c0.15,0.52,0.49,0.99,0.99,1.28h0.01 c0.51,0.29,1.1,0.35,1.62,0.21c0.52-0.15,1-0.49,1.29-1c0.29-0.51,0.35-1.1,0.21-1.63c-0.15-0.52-0.49-1-1-1.29 C97.87,69.82,97.28,69.76,96.76,69.9L96.76,69.9L96.76,69.9z M96.47,52.2c0.04-0.08,0.08-0.17,0.13-0.24 c1.05-1.77,2.72-2.98,4.57-3.48c1.85-0.51,3.89-0.32,5.71,0.67c0.08,0.04,0.17,0.08,0.24,0.13c1.78,1.05,2.98,2.72,3.48,4.57 c0.52,1.9,0.31,3.99-0.73,5.82c-1.05,1.84-2.75,3.08-4.64,3.6c-1.89,0.52-3.99,0.31-5.82-0.73c-1.84-1.05-3.08-2.75-3.6-4.64 C95.29,56.05,95.48,54.01,96.47,52.2L96.47,52.2L96.47,52.2z M101.99,51.47c-1.13,0.31-2.13,1.04-2.76,2.13v0.01 c-0.63,1.1-0.75,2.35-0.44,3.48c0.31,1.13,1.05,2.13,2.15,2.76c1.1,0.63,2.35,0.75,3.48,0.44c1.13-0.31,2.13-1.05,2.76-2.14 c0.63-1.1,0.75-2.35,0.44-3.48c-0.31-1.13-1.04-2.13-2.13-2.76h-0.01C104.37,51.28,103.12,51.16,101.99,51.47L101.99,51.47 L101.99,51.47z M86.18,44.71c-1.03-0.85-1.93-1.92-2.65-3.17c-7.85,1.92-13.93,0.23-18.06-3.12c-2.14-1.74-3.75-3.94-4.8-6.31 c-1.04-2.37-1.52-4.93-1.42-7.39c0.19-4.38,2.19-8.5,6.13-10.9c3.02-6.01,6.91-9.76,11.64-11.38c4.6-1.57,9.89-1.08,15.83,1.35 c9.48-5.77,17.13-5.21,25.17,3.51c1.93,2.52,3.35,5.47,4.14,8.6c0.59,2.33,0.81,4.8,0.65,7.26c-0.45,6.73-5.38,16.85-12.38,18.62 c-2.18,0.55-2.07,0.8-4.73,0.7c-1.52,1.63-3.31,2.88-5.23,3.74c-2.4,1.06-4.99,1.49-7.46,1.27C90.51,47.25,88.12,46.33,86.18,44.71 L86.18,44.71L86.18,44.71z M84.46,54.3c0.18,6.77-1.45,12.36-5.32,18.69c-3.5,5.72-8.82,11-16.3,15.38 c-0.1,0.06-0.21,0.1-0.31,0.15l-0.05,0.01c0.01,0.99,0.04,1.97,0.1,2.94c0.06,1.04,0.16,2.07,0.28,3.09 c0.24,1.99,0.59,3.92,1.05,5.78s1.02,3.67,1.68,5.42c0.17,0.44,0.13,0.9-0.04,1.29s-0.51,0.72-0.95,0.88 c-0.44,0.17-0.89,0.14-1.29-0.04c-0.4-0.18-0.72-0.51-0.88-0.95c-0.71-1.88-1.31-3.81-1.8-5.81c-0.49-2-0.88-4.05-1.13-6.17 c-0.26-2.1-0.4-4.28-0.41-6.53c-0.01-2.25,0.1-4.56,0.34-6.95c0.05-0.47,0.28-0.86,0.61-1.13s0.77-0.42,1.24-0.38h0.01 c0.46,0.05,0.85,0.28,1.13,0.61c0.27,0.33,0.42,0.77,0.38,1.24c-0.05,0.55-0.1,1.11-0.15,1.69l-0.07,1.05 c6.32-3.97,10.85-8.65,13.84-13.67c3.39-5.7,4.82-10.57,4.65-16.62c0-0.18,0.14-0.33,0.31-0.33h2.74c0.18,0,0.32,0.15,0.32,0.32 L84.46,54.3L84.46,54.3L84.46,54.3z M54.57,63.89c0.08,0.46-0.03,0.91-0.27,1.26c-0.25,0.35-0.63,0.62-1.08,0.7 c-0.46,0.08-0.91-0.03-1.26-0.27c-0.35-0.25-0.61-0.63-0.7-1.08c-0.08-0.48-0.11-0.94-0.1-1.39c0.02-0.47,0.09-0.92,0.22-1.34 c0.17-0.58,0.42-1.13,0.74-1.62c0.33-0.51,0.74-0.97,1.21-1.37c0.44-0.38,0.94-0.7,1.47-0.95c0.53-0.25,1.09-0.43,1.68-0.54 c0.5-0.09,1.01-0.13,1.52-0.1c0.5,0.02,1,0.1,1.5,0.24c1.35,0.38,2.33,0.93,3,1.59c0.69,0.69,1.05,1.5,1.18,2.42 c0.11,0.78,0.01,1.59-0.22,2.43c-0.22,0.81-0.57,1.65-0.98,2.5c-0.35,0.74-1.2,2.51-2.3,4.54c-1.09,2.03-2.45,4.3-3.79,6.03 c-1.94,2.5-3.87,4.19-5.45,3.92c-1.59-0.26-2.75-2.47-3.04-7.76v-0.01c-0.02-0.46,0.15-0.9,0.44-1.21l0.02-0.02 c0.29-0.31,0.7-0.51,1.15-0.53h0.03c0.45-0.01,0.87,0.16,1.19,0.44c0.32,0.29,0.53,0.7,0.55,1.17v0.02 c0.11,2.04,0.44,2.93,0.86,3.08c0.39,0.15,0.96-0.38,1.57-1.18c1.23-1.58,2.48-3.72,3.52-5.62c1.03-1.92,1.85-3.61,2.19-4.32 c0.29-0.61,0.55-1.21,0.71-1.73c0.16-0.5,0.23-0.94,0.19-1.29c-0.03-0.21-0.16-0.42-0.4-0.6c-0.28-0.22-0.72-0.43-1.35-0.6 c-0.25-0.07-0.5-0.11-0.74-0.13c-0.26-0.01-0.51,0.01-0.76,0.05c-0.29,0.05-0.58,0.15-0.84,0.27c-0.26,0.13-0.51,0.28-0.74,0.47 c-0.21,0.18-0.4,0.39-0.54,0.61c-0.15,0.22-0.25,0.45-0.32,0.71c-0.05,0.19-0.08,0.39-0.09,0.59 C54.51,63.47,54.53,63.68,54.57,63.89L54.57,63.89L54.57,63.89z"/></g></svg>